<svg width="239" height="36" viewBox="0 0 239 36" fill="none" xmlns="http://www.w3.org/2000/svg">
<path fill-rule="evenodd" clip-rule="evenodd" d="M23.3881 1.07197C22.105 -0.21115 19.9477 -0.441948 18.5787 0.927048L0.92705 18.5787C-0.44195 19.9477 -0.211149 22.105 1.07198 23.3881L3.95017 26.2664C4.35517 26.6714 4.97923 26.7596 5.48063 26.4826C6.4292 25.9591 7.83976 26.1088 8.86545 27.1345C9.89117 28.1602 10.0409 29.5708 9.51727 30.5193C9.24048 31.0207 9.32872 31.6448 9.7337 32.0497L12.6119 34.928C13.895 36.2111 16.0523 36.442 17.4213 35.0728L35.0729 17.4212C36.4419 16.0523 36.2112 13.895 34.9281 12.6119L32.0434 9.72715C31.6415 9.32531 31.0234 9.23498 30.5233 9.50502C29.5752 10.017 28.1757 9.86201 27.1567 8.84322C26.1379 7.8244 25.9831 6.42474 26.4951 5.47668C26.7651 4.97659 26.6748 4.35856 26.2729 3.95672L23.3881 1.07197Z" fill="url(#paint0_linear_297_18392)"/>
<path d="M56.1867 27.3467C54.3556 27.3467 52.7022 26.9378 51.2267 26.12C49.7511 25.2844 48.5956 24.1289 47.76 22.6533C46.9244 21.1778 46.5067 19.5156 46.5067 17.6667C46.5067 15.8178 46.9244 14.1556 47.76 12.68C48.6133 11.2044 49.7778 10.0578 51.2533 9.24C52.7289 8.40444 54.3822 7.98667 56.2133 7.98667C57.7956 7.98667 59.2267 8.28889 60.5067 8.89333C61.8044 9.48 62.8711 10.3244 63.7067 11.4267L60.72 14.3067C59.5644 12.8489 58.1422 12.12 56.4533 12.12C55.44 12.12 54.5333 12.3511 53.7333 12.8133C52.9511 13.2756 52.3378 13.9333 51.8933 14.7867C51.4489 15.6222 51.2267 16.5822 51.2267 17.6667C51.2267 18.7511 51.4489 19.7111 51.8933 20.5467C52.3378 21.3822 52.9511 22.0311 53.7333 22.4933C54.5333 22.9556 55.44 23.1867 56.4533 23.1867C58.16 23.1867 59.5822 22.4578 60.72 21L63.7067 23.88C62.8711 25 61.8044 25.8622 60.5067 26.4667C59.2267 27.0533 57.7867 27.3467 56.1867 27.3467ZM73.4359 27.3467C70.8582 27.3467 68.8493 26.6 67.4093 25.1067C65.9693 23.6133 65.2493 21.4889 65.2493 18.7333V8.33333H69.8893V18.5467C69.8893 20.1644 70.1915 21.3467 70.7959 22.0933C71.4182 22.8222 72.3159 23.1867 73.4893 23.1867C74.6626 23.1867 75.5515 22.8222 76.1559 22.0933C76.7604 21.3467 77.0626 20.1644 77.0626 18.5467V8.33333H81.6493V18.7333C81.6493 21.4889 80.9293 23.6133 79.4893 25.1067C78.0493 26.6 76.0315 27.3467 73.4359 27.3467ZM89.2381 8.33333V23.0267H97.8781V27H84.5981V8.33333H89.2381ZM95.7926 12.3067V8.33333H111.499V12.3067H105.979V27H101.339V12.3067H95.7926ZM120.803 27.3467C118.225 27.3467 116.216 26.6 114.776 25.1067C113.336 23.6133 112.616 21.4889 112.616 18.7333V8.33333H117.256V18.5467C117.256 20.1644 117.559 21.3467 118.163 22.0933C118.785 22.8222 119.683 23.1867 120.856 23.1867C122.03 23.1867 122.919 22.8222 123.523 22.0933C124.128 21.3467 124.43 20.1644 124.43 18.5467V8.33333H129.016V18.7333C129.016 21.4889 128.296 23.6133 126.856 25.1067C125.416 26.6 123.399 27.3467 120.803 27.3467ZM139.912 22.0133C139.912 21.9956 139.948 21.9867 140.019 21.9867H136.739V27H132.072V8.33333H140.019C141.601 8.33333 142.979 8.61778 144.152 9.18667C145.325 9.73778 146.232 10.5289 146.872 11.56C147.512 12.5911 147.832 13.8089 147.832 15.2133C147.832 16.5644 147.521 17.7467 146.899 18.76C146.276 19.7733 145.405 20.5556 144.285 21.1067L148.152 27H143.192L139.912 22.0133ZM139.725 18.0933C140.845 18.0933 141.69 17.8444 142.259 17.3467C142.828 16.8311 143.112 16.12 143.112 15.2133C143.112 14.2889 142.828 13.5778 142.259 13.08C141.69 12.5644 140.845 12.3067 139.725 12.3067H136.739V18.0933H139.725ZM164.099 27H150.072V8.33333H163.752V12.2267H154.712V15.64H162.712V19.4267H154.712V23.08H164.099V27ZM177.578 27.3467C176.173 27.3467 174.805 27.16 173.471 26.7867C172.138 26.3956 171.062 25.8889 170.245 25.2667L171.791 21.5867C172.591 22.1378 173.507 22.5911 174.538 22.9467C175.587 23.2844 176.618 23.4533 177.631 23.4533C178.698 23.4533 179.48 23.3022 179.978 23C180.493 22.6978 180.751 22.2889 180.751 21.7733C180.751 21.2222 180.458 20.8133 179.871 20.5467C179.302 20.2622 178.396 19.9778 177.151 19.6933C175.765 19.3556 174.636 19.0178 173.765 18.68C172.911 18.3244 172.165 17.7733 171.525 17.0267C170.885 16.2622 170.565 15.24 170.565 13.96C170.565 12.84 170.849 11.8267 171.418 10.92C172.005 10.0133 172.876 9.30222 174.031 8.78667C175.187 8.25333 176.6 7.98667 178.271 7.98667C179.445 7.98667 180.573 8.12889 181.658 8.41333C182.76 8.68 183.729 9.08 184.565 9.61333L183.178 13.32C181.471 12.36 179.818 11.88 178.218 11.88C177.169 11.88 176.396 12.0489 175.898 12.3867C175.418 12.7244 175.178 13.1689 175.178 13.72C175.178 14.2533 175.453 14.6533 176.005 14.92C176.573 15.1867 177.48 15.4622 178.725 15.7467C180.076 16.0489 181.196 16.3778 182.085 16.7333C182.991 17.0711 183.765 17.6133 184.405 18.36C185.045 19.1067 185.365 20.12 185.365 21.4C185.365 22.5022 185.071 23.5067 184.485 24.4133C183.898 25.3022 183.018 26.0133 181.845 26.5467C180.671 27.08 179.249 27.3467 177.578 27.3467ZM195.097 8.33333C196.679 8.33333 198.057 8.61778 199.23 9.18667C200.403 9.73778 201.31 10.5289 201.95 11.56C202.59 12.5911 202.91 13.8089 202.91 15.2133C202.91 16.6 202.59 17.8089 201.95 18.84C201.31 19.8711 200.403 20.6622 199.23 21.2133C198.057 21.7644 196.679 22.04 195.097 22.04H191.817V27H187.15V8.33333H195.097ZM194.803 18.0667C195.923 18.0667 196.768 17.8178 197.337 17.32C197.906 16.8222 198.19 16.12 198.19 15.2133C198.19 14.2889 197.906 13.5778 197.337 13.08C196.768 12.5644 195.923 12.3067 194.803 12.3067H191.817V18.0667H194.803ZM213.797 27.3467C211.93 27.3467 210.25 26.9289 208.757 26.0933C207.263 25.2578 206.09 24.1022 205.237 22.6267C204.401 21.1511 203.983 19.4978 203.983 17.6667C203.983 15.8356 204.401 14.1822 205.237 12.7067C206.09 11.2311 207.263 10.0756 208.757 9.24C210.25 8.40444 211.93 7.98667 213.797 7.98667C215.645 7.98667 217.317 8.40444 218.81 9.24C220.303 10.0756 221.468 11.2311 222.303 12.7067C223.157 14.1644 223.583 15.8178 223.583 17.6667C223.583 19.5156 223.157 21.1778 222.303 22.6533C221.468 24.1111 220.303 25.2578 218.81 26.0933C217.317 26.9289 215.645 27.3467 213.797 27.3467ZM213.797 23.1867C214.757 23.1867 215.619 22.9556 216.383 22.4933C217.165 22.0311 217.77 21.3822 218.197 20.5467C218.641 19.7111 218.863 18.7511 218.863 17.6667C218.863 16.5822 218.641 15.6222 218.197 14.7867C217.77 13.9333 217.165 13.2756 216.383 12.8133C215.619 12.3511 214.757 12.12 213.797 12.12C212.819 12.12 211.939 12.3511 211.157 12.8133C210.392 13.2756 209.788 13.9333 209.343 14.7867C208.917 15.6222 208.703 16.5822 208.703 17.6667C208.703 18.7511 208.917 19.7111 209.343 20.5467C209.788 21.3822 210.392 22.0311 211.157 22.4933C211.939 22.9556 212.819 23.1867 213.797 23.1867ZM223.246 12.3067V8.33333H238.952V12.3067H233.432V27H228.792V12.3067H223.246Z" fill="black"/>
<defs>
<linearGradient id="paint0_linear_297_18392" x1="5.88437" y1="6.92285" x2="34.9605" y2="23.032" gradientUnits="userSpaceOnUse">
<stop stop-color="#009DFF"/>
<stop offset="1" stop-color="#46F374"/>
</linearGradient>
</defs>
</svg>
